<svg width="219" height="114" viewBox="0 0 219 114" fill="none" xmlns="http://www.w3.org/2000/svg">
<path d="M10.8386 15.868C11.4195 27.3357 12.5521 38.8048 12.5521 50.5129C12.5521 57.5351 17.4551 99.3685 19.6544 104.494" stroke="#FF0000" stroke-width="5.06477" stroke-linecap="round"/>
<path d="M2.61002 27.7782C10.8386 26.5102 18.9427 15.868 27.1723 15.868C29.414 15.868 30.8807 20.6558 32.8775 22.9059" stroke="#FF0000" stroke-width="5.06477" stroke-linecap="round"/>
<path d="M27.2067 16.2227C26.336 30.6088 27.5033 45.793 27.5033 60.4114C27.787 62.1221 34.4775 108.992 34.4775 110.769" stroke="#FF0000" stroke-width="5.06477" stroke-linecap="round"/>
<path d="M37.2852 24.277C37.2852 34.3836 37.2513 62.2522 37.2852 72.3587C37.3009 77.0477 31.9174 94.4311 33.0284 98.8907" stroke="#FF0000" stroke-width="5.06477" stroke-linecap="round"/>
<path d="M37.2841 36.1896C38.2469 44.1111 40.5508 52.0513 42.4314 59.5857C43.6743 64.5647 45.13 69.5091 47.259 73.8369C48.1482 75.6445 48.7271 77.7158 49.7208 79.4074C50.1666 80.1663 50.8 80.8701 51.0955 81.7285" stroke="#FF0000" stroke-width="5.06477" stroke-linecap="round"/>
<path d="M37.2841 70.1675C40.0826 69.9659 42.1454 68.416 44.9245 68.416" stroke="#FF0000" stroke-width="5.06477" stroke-linecap="round"/>
<path d="M50.4787 24.6456C50.0642 42.8544 50.7484 61.312 54.3558 78.9514C55.2011 83.0846 56.6693 87.067 57.3921 91.2277C57.4887 91.7842 57.4247 92.3218 57.3488 92.8682" stroke="#FF0000" stroke-width="5.06477" stroke-linecap="round"/>
<path d="M42.8075 37.9635C48.8598 33.654 70.4806 17.2294 73.1629 35.6996C74.1898 42.7702 68.3728 47.7875 64.2998 50.3911C61.9033 51.9231 52.9993 41.6148 50.7566 39.949" stroke="#FF0000" stroke-width="5.06477" stroke-linecap="round"/>
<path d="M78.1317 35.4886C78.7291 51.2482 82.9862 65.3315 86.8028 80.0402C88.0981 85.0322 88.1229 89.7993 88.1229 95.0395" stroke="#FF0000" stroke-width="5.06477" stroke-linecap="round"/>
<path d="M70.7853 21.8243C76.9094 33.3113 84.5347 42.9017 90.6595 54.301C95.0165 62.4101 98.9571 71.7609 104.579 78.2225" stroke="#FF0000" stroke-width="5.06477" stroke-linecap="round"/>
<path d="M84.3055 69.1162C86.3685 65.7339 90.303 60.3588 94.0028 60.3588" stroke="#FF0000" stroke-width="5.06477" stroke-linecap="round"/>
<path d="M108.083 26.7615C106.606 33.5816 106.675 40.794 106.636 47.8359C106.608 52.9356 106.162 57.9909 105.503 63.0093C105.176 65.5058 104.88 68.0415 104.674 70.5617C104.625 71.1507 104.379 71.4789 104.687 71.8966" stroke="#FF0000" stroke-width="5.06477" stroke-linecap="round"/>
<path d="M105.135 49.7238C108.277 50.4893 117.593 53.8081 120.728 54.435C120.831 54.4556 115.357 51.6856 114.978 51.5124C113.789 50.9702 112.573 50.6715 111.325 50.5324C110.936 50.489 111.057 50.2072 111.356 50.1604C113.089 49.8885 114.943 50.2344 116.693 50.1726C118.34 50.1145 120.127 49.9492 121.756 50.3815C122.151 50.4863 122.253 50.7065 122.537 50.3302" stroke="#FF0000" stroke-width="5.06477" stroke-linecap="round"/>
<path d="M124.457 14.4705C123.67 18.8278 123.566 23.2902 123.313 27.7261C122.739 37.7668 121.56 47.8085 121.305 57.8596C121.068 67.1871 121.917 76.6205 121.228 85.9365" stroke="#FF0000" stroke-width="5.06477" stroke-linecap="round"/>
<path d="M136.629 37.6195C131.846 43.9863 125.662 50.2367 127.557 59.936C129.866 71.7621 142.248 71.4993 148.252 65.0439C151.416 61.6425 151.341 55.9259 151.288 51.0094C151.234 45.9252 149.513 41.951 146.929 38.5122C144.51 35.2922 139.498 34.1223 136.87 37.6195" stroke="#FF0000" stroke-width="5.06477" stroke-linecap="round"/>
<path d="M156.933 20.2421C156.119 29.5986 155.837 39.2079 156.047 48.6208C156.133 52.4628 156.392 56.2962 156.642 60.1235C156.722 61.3533 156.469 80.1548 157.051 81.3113C157.808 82.817 167.077 52.5224 167.549 51.7319C170.942 46.0504 174.585 39.7565 177.261 33.3873C178.513 30.4084 179.246 27.3649 179.365 23.965C179.446 21.6659 178.908 24.2943 178.82 25.1684C177.869 34.6463 178.883 44.4635 179.585 53.9032C179.921 58.4137 182.864 85.949 183.787 90.3358" stroke="#FF0000" stroke-width="5.06477" stroke-linecap="round"/>
<path d="M164.176 10.1273C165.401 10.3704 181.868 10.2245 183.043 10.7315" stroke="#FF0000" stroke-width="5.06477" stroke-linecap="round"/>
<path d="M214.776 35.4872C215.709 49.8009 214.431 64.2183 215.264 78.531C215.475 82.1684 216.343 85.6405 216.343 89.2815" stroke="#FF0000" stroke-width="5.06477" stroke-linecap="round"/>
<path d="M214.777 34.9405C213.07 29.5005 210.635 22.524 205.87 19.4086C201.75 16.715 193.65 28.9551 192.509 31.7519C189.908 38.123 188.71 41.2149 191.056 47.6952C192.36 51.2963 196.671 53.3231 200.157 53.4554C203.366 53.5771 206.648 53.2695 209.549 51.8096C211.343 50.9065 213.66 45.9574 214.777 44.771C216.281 43.1736 209.561 57.7611 209.162 58.4955C206.019 64.2667 202.388 69.6677 199.286 75.4675C198.029 77.8185 197.751 80.0799 195.994 82.1534C194.081 84.4114 191.25 87.3291 191.25 90.4851" stroke="#FF0000" stroke-width="5.06477" stroke-linecap="round"/>
</svg>
