<svg width="83" height="36" viewBox="0 0 83 36" fill="none" xmlns="http://www.w3.org/2000/svg">
<path d="M4.08383 4.67651C4.30144 8.23803 4.7257 11.8 4.7257 15.4362C4.7257 17.6171 6.56235 30.6093 7.38617 32.201" stroke="white" stroke-width="1.89723" stroke-linecap="round"/>
<path d="M0.999908 8.37546C4.0823 7.98166 7.11805 4.67651 10.2008 4.67651C11.0405 4.67651 11.59 6.16345 12.338 6.86226" stroke="white" stroke-width="1.89723" stroke-linecap="round"/>
<path d="M10.2144 4.78687C9.88824 9.25477 10.3255 13.9705 10.3255 18.5106C10.4318 19.0419 12.938 33.5981 12.938 34.1502" stroke="white" stroke-width="1.89723" stroke-linecap="round"/>
<path d="M13.9899 7.28918C13.9899 10.428 13.9772 19.0832 13.9899 22.2219C13.9958 23.6782 11.9791 29.077 12.3953 30.462" stroke="white" stroke-width="1.89723" stroke-linecap="round"/>
<path d="M13.9881 10.989C14.3487 13.4492 15.2117 15.9152 15.9162 18.2552C16.3818 19.8015 16.9271 21.3371 17.7246 22.6812C18.0577 23.2425 18.2745 23.8858 18.6468 24.4112C18.8138 24.6469 19.051 24.8655 19.1617 25.132" stroke="white" stroke-width="1.89723" stroke-linecap="round"/>
<path d="M13.9881 21.5404C15.0364 21.4778 15.8091 20.9965 16.8501 20.9965" stroke="white" stroke-width="1.89723" stroke-linecap="round"/>
<path d="M18.9312 7.40222C18.7759 13.0573 19.0322 18.7897 20.3835 24.268C20.7002 25.5516 21.2501 26.7884 21.5209 28.0806C21.5571 28.2535 21.5331 28.4205 21.5047 28.5901" stroke="white" stroke-width="1.89723" stroke-linecap="round"/>
<path d="M16.0587 11.5388C18.3258 10.2004 26.4249 5.09945 27.4297 10.8357C27.8143 13.0317 25.6353 14.5899 24.1096 15.3985C23.2119 15.8743 19.8765 12.6728 19.0364 12.1555" stroke="white" stroke-width="1.89723" stroke-linecap="round"/>
<path d="M29.2896 10.7704C29.5133 15.6648 31.108 20.0387 32.5377 24.6068C33.0229 26.1571 33.0322 27.6377 33.0322 29.2651" stroke="white" stroke-width="1.89723" stroke-linecap="round"/>
<path d="M26.5383 6.52649C28.8324 10.094 31.6888 13.0725 33.9831 16.6128C35.6152 19.1312 37.0913 22.0353 39.1973 24.0421" stroke="white" stroke-width="1.89723" stroke-linecap="round"/>
<path d="M31.6019 21.2148C32.3747 20.1644 33.8486 18.495 35.2345 18.495" stroke="white" stroke-width="1.89723" stroke-linecap="round"/>
<path d="M40.5105 8.05957C39.9573 10.1777 39.9828 12.4177 39.9684 14.6047C39.9579 16.1885 39.7907 17.7585 39.544 19.3171C39.4213 20.0924 39.3106 20.8799 39.2333 21.6626C39.2153 21.8455 39.1229 21.9475 39.2382 22.0772" stroke="white" stroke-width="1.89723" stroke-linecap="round"/>
<path d="M39.4057 15.1912C40.5827 15.429 44.0725 16.4597 45.2468 16.6544C45.2855 16.6608 43.2351 15.8005 43.0929 15.7467C42.6475 15.5783 42.1922 15.4856 41.7246 15.4424C41.5789 15.4289 41.6242 15.3414 41.736 15.3268C42.3853 15.2424 43.0799 15.3498 43.7353 15.3306C44.3522 15.3126 45.0217 15.2612 45.6321 15.3955C45.7801 15.4281 45.818 15.4964 45.9245 15.3796" stroke="white" stroke-width="1.89723" stroke-linecap="round"/>
<path d="M46.6446 4.24268C46.3499 5.59595 46.3111 6.98182 46.2162 8.35948C46.0013 11.4778 45.5595 14.5965 45.4639 17.7181C45.3751 20.6149 45.6933 23.5447 45.4352 26.4379" stroke="white" stroke-width="1.89723" stroke-linecap="round"/>
<path d="M51.2032 11.4322C49.4115 13.4095 47.0952 15.3507 47.8048 18.363C48.6701 22.0359 53.3081 21.9542 55.5572 19.9494C56.7423 18.893 56.7143 17.1176 56.6946 15.5907C56.6741 14.0117 56.0295 12.7774 55.0618 11.7094C54.1556 10.7094 52.2779 10.346 51.2937 11.4322" stroke="white" stroke-width="1.89723" stroke-linecap="round"/>
<path d="M58.8106 6.03443C58.5055 8.9403 58.4 11.9247 58.4788 14.848C58.511 16.0412 58.6079 17.2318 58.7015 18.4204C58.7316 18.8024 58.637 24.6416 58.8548 25.0007C59.1383 25.4684 62.6104 16.0598 62.7873 15.8142C64.0585 14.0497 65.4231 12.095 66.4255 10.117C66.8943 9.1918 67.1688 8.24658 67.2135 7.19067C67.2437 6.47663 67.0424 7.29293 67.0096 7.56439C66.6531 10.508 67.033 13.5569 67.296 16.4886C67.4217 17.8894 68.5244 26.4411 68.8699 27.8035" stroke="white" stroke-width="1.89723" stroke-linecap="round"/>
<path d="M61.5227 2.89445C61.9818 2.96995 68.1501 2.92466 68.5903 3.08211" stroke="white" stroke-width="1.89723" stroke-linecap="round"/>
<path d="M80.4767 10.7704C80.8261 15.2158 80.3476 19.6934 80.6594 24.1385C80.7386 25.2682 81.0637 26.3465 81.0637 27.4773" stroke="white" stroke-width="1.89723" stroke-linecap="round"/>
<path d="M80.4771 10.6008C79.8377 8.91127 78.9255 6.74458 77.1405 5.77704C75.5971 4.94048 72.5632 8.74188 72.1355 9.61048C71.1611 11.5892 70.7127 12.5494 71.5915 14.562C72.0798 15.6804 73.6948 16.3099 75.0007 16.3509C76.2025 16.3888 77.4319 16.2932 78.5186 15.8398C79.1909 15.5593 80.0588 14.0223 80.4771 13.6538C81.0404 13.1577 78.5234 17.6882 78.3736 17.9163C77.1964 19.7086 75.8362 21.386 74.6742 23.1872C74.2032 23.9174 74.0991 24.6197 73.4411 25.2637C72.7246 25.965 71.664 26.8711 71.664 27.8513" stroke="white" stroke-width="1.89723" stroke-linecap="round"/>
</svg>
