<svg width="157" height="248" viewBox="0 0 157 248" fill="none" xmlns="http://www.w3.org/2000/svg">
<path d="M63.6282 157.079C61.8005 158.602 61.0613 160.555 59.983 162.495C59.1168 164.053 58.2424 165.853 57.6649 167.621C57.3874 168.47 57.5758 169.381 57.2557 170.233C56.9266 171.108 56.0114 171.898 55.8203 172.778C55.2703 175.311 53.3089 177.515 52.4971 179.932C51.8112 181.974 51.192 183.512 51.0511 185.66C50.9302 187.503 51.7899 188.83 51.802 190.526C51.8119 191.907 53.3696 192.939 53.8667 194.097C56.0763 199.241 59.7884 201.705 64.4677 204.092C70.0089 206.918 75.9049 208.39 82.2571 207.228C85.2348 206.683 88.8918 206.972 91.0973 204.792C94.1567 201.767 96.9139 199.217 98.9316 195.336C101.486 190.422 102.874 186.004 101.529 180.51C101.163 179.014 100.804 177.658 100.202 176.276C99.5586 174.799 99.1957 172.933 98.5072 171.599C97.2103 169.086 95.3422 165.61 93.3289 163.53C92.4286 162.601 91.6259 161.653 90.678 160.738C90.0113 160.095 89.709 158.493 89.0519 158.035C88.3672 157.557 88.1186 156.728 87.9456 155.868C87.9348 155.814 86.9282 154.879 87.5124 154.918C88.2161 154.964 88.2275 155.827 88.6593 156.166C89.4897 156.817 89.8695 157.796 90.6537 158.391C91.5383 159.063 92.5616 159.619 93.3667 160.538C94.3002 161.604 95.6286 162.131 96.4892 163.089C97.4338 164.139 98.7427 165.286 99.9082 165.952C100.385 166.224 101.19 167.4 101.645 167.867C102.259 168.495 102.984 168.99 103.633 169.589C105.127 170.967 107.045 172.086 108.365 173.586C110.223 175.697 113.59 177.837 113.759 181.082C113.963 184.973 113.797 189.099 113.731 192.998C113.704 194.589 114.219 196.136 114.115 197.714C114.058 198.578 114.648 199.001 114.669 199.845C114.717 201.809 114.548 203.445 114.842 205.365C115.437 209.255 113.69 213.452 114.435 217.298C114.9 219.695 115.186 224.391 114.319 226.925C113.276 229.976 110.816 231.953 109.379 234.853C108.538 236.55 107.394 238.007 107.048 239.873C106.716 241.664 106.093 243.812 105.467 245.55C104.676 247.745 105.226 245.578 105.67 244.872C106.433 243.659 107.499 242.374 108.24 241.04C109.151 239.402 110.326 238.072 111.367 236.575C112.225 235.341 112.758 233.73 113.62 232.45C115.218 230.077 116.358 227.406 117.413 224.782C117.915 223.53 118.594 222.12 119.367 220.972C120.35 219.514 120.007 216.654 120.122 214.906C120.367 211.161 121.459 206.228 120.653 202.584C120.146 200.295 119.84 197.861 119.971 195.46C120.062 193.779 119.5 192.27 119.575 190.616C119.64 189.191 119.885 187.766 119.676 186.35C119.126 182.617 119.633 178.85 119.88 175.095C119.963 173.823 119.979 171.482 119.277 170.385C118.942 169.861 118.012 170.203 117.53 169.831C116.881 169.33 116.156 169.038 115.491 168.587C114.987 168.245 114.446 168.455 113.908 168.253C113.267 168.012 112.324 167.25 111.72 166.853C110.443 166.011 108.426 165.697 106.987 164.992C105.497 164.262 103.924 163.57 102.359 163.034C100.205 162.296 98.1654 160.076 96.5547 158.464C95.1427 157.051 93.0921 153.979 91.1495 153.25C90.0998 152.857 89.3031 152.396 88.6051 151.554" stroke="white" stroke-width="2.0878" stroke-linecap="round"/>
<path d="M64.1772 152.692C62.4057 152.86 60.7592 153.434 58.9533 153.495C58.3215 153.517 57.0636 153.819 56.5579 154.234C55.0433 155.477 54.2468 156.575 53.0774 158.171C51.9509 159.708 51.0619 162.602 49.6691 163.737C48.8071 164.44 48.4804 165.833 47.5863 166.683C45.7764 168.405 44.0152 170.188 42.1545 171.867C38.9849 174.728 35.5383 176.723 32.8684 179.714C30.1227 182.79 26.1709 186.302 25.8899 190.586C25.7982 191.983 25.7066 193.379 25.615 194.775C25.582 195.279 25.6504 195.957 25.4863 196.433C25.236 197.16 24.4361 196.374 24.4721 195.825C24.724 191.986 24.7152 188.254 24.8613 184.437C24.9428 182.305 24.3748 180.023 25.014 177.865C25.7775 175.287 27.6615 172.893 29.3295 170.901C30.9382 168.979 33.5382 167.818 34.7114 165.568C35.4971 164.061 37.8523 163.367 39.2486 162.804C40.6753 162.228 41.9753 161.327 43.4028 160.723C45.5424 159.818 47.4747 158.118 49.5753 156.983" stroke="white" stroke-width="2.0878" stroke-linecap="round"/>
<path d="M61.4795 146.73C54.3565 146.263 47.3964 147.725 40.2655 147.257C37.199 147.056 34.6591 148.351 31.787 148.593C29.9717 148.746 29.1929 149.032 27.44 149.747C26.4847 150.137 25.5024 149.783 24.6353 150.122C20.5518 151.719 19.0569 158.289 17.7053 162.14C17.0287 164.068 16.2628 166.118 15.4765 167.99C15.0126 169.095 14.6925 170.404 14.1125 171.445C13.8108 171.987 13.0678 172.244 12.9346 172.834C12.4085 175.162 10.9159 177.032 10.1069 179.337C9.61097 180.751 8.66554 181.826 8.22821 183.318C7.84119 184.639 6.7172 185.442 6.54229 186.672C6.09974 189.785 5.4745 188.594 4.02828 186.854C2.79058 185.364 2.36306 182.645 2.38162 180.749C2.40796 178.059 1.98346 175.732 2.88304 173.107C3.61063 170.984 6.26468 169.069 7.59372 167.18C11.0056 162.329 13.2238 156.448 16.3503 151.205C18.6923 147.277 20.4304 142.598 25.3353 142.919C27.3675 143.053 29.9138 143.182 31.9366 142.846C35.6157 142.235 38.0752 139.438 41.9246 139.691C47.5868 140.062 53.249 140.434 58.9112 140.805C60.5452 140.912 61.5576 139.142 62.8868 139.147C64.2445 139.152 62.8939 137.247 62.3736 136.955C61.5674 136.501 60.5491 136.595 59.6462 136.536C56.4269 136.325 54.3657 131.897 51.6039 130.838C49.3338 129.967 47.0671 127.555 45.1989 125.994C41.0793 122.551 36.3378 119.404 32.5887 115.572C29.5908 112.508 23.6488 112.045 23.1169 107.009C22.8202 104.2 21.3787 101.747 20.8389 98.9712C20.4738 97.0939 19.7813 94.576 19.0447 92.8038C17.3848 88.8107 17.1163 84.3093 16.0092 80.1323C15.0411 76.4797 13.9211 72.8637 12.1428 69.7248C11.6647 68.881 10.2798 68.1434 10.2932 67.0984C10.3051 66.1761 10.6023 65.3347 10.1046 64.5808C9.33813 63.4199 9.47671 58.7418 9.57325 57.2704C9.65272 56.0591 9.44636 54.254 9.94377 53.1639C10.3845 52.1981 11.2952 50.9663 11.4214 49.9029C11.7071 47.4964 12.6227 45.4605 12.7783 43.0895C12.9449 40.5509 12.4452 48.1668 12.2786 50.7054C11.861 57.0703 14.3649 62.2794 14.7855 68.3525C14.8812 69.7353 15.5207 70.6281 15.4225 72.1254C15.3034 73.9407 15.1879 75.0813 16.0325 76.6959C17.4554 79.416 17.9695 82.908 18.8735 85.7836C20.342 90.4552 23.1134 94.6035 25.5024 98.7708C27.1416 101.63 28.4359 105.096 30.4799 107.652C31.4016 108.805 32.8161 109.68 33.6032 110.895C34.3427 112.037 35.814 114.345 37.2125 114.437C38.5614 114.525 39.886 116.947 41.0639 117.754C42.7023 118.877 44.3686 120.02 46.105 121.043C49.0666 122.789 52.0957 125.114 55.4787 125.709C57.0042 125.977 58.3982 127.119 60.0134 127.472C61 127.688 62.4134 127.819 63.3542 128.171C63.9311 128.387 68.0727 129.444 68.113 128.83C68.2629 126.545 66.1883 125.653 65.3493 123.958C64.7363 122.72 64.1519 121.458 63.5728 120.217C59.5682 111.635 55.6976 102.854 52.094 94.0927C51.1008 91.678 50.0465 87.6205 48.4024 85.6422C47.4452 84.4904 46.5442 82.7443 46.24 81.2363C45.7901 79.0067 44.5219 76.5764 44.419 74.321C44.3335 72.4473 44.645 70.4922 44.7682 68.6141C45.075 63.9377 45.822 59.4868 46.1283 54.8185C46.2932 52.3047 46.9255 49.6004 47.0983 46.9669C47.1153 46.7076 47.4052 49.2228 47.3563 49.9687C47.2454 51.6595 48.0175 53.0942 47.9558 54.6985C47.8183 58.2752 48.6686 61.1576 49.1253 64.6092C49.7547 69.3662 52.4026 73.7732 53.1212 78.4364C53.4865 80.8072 54.1939 83.0575 54.5863 85.3817C54.8379 86.8715 54.442 88.822 54.9793 90.1779C56.1595 93.1564 56.3643 96.4571 57.5547 99.4613C58.853 102.738 59.5507 106.212 61.3067 109.302C63.5096 113.177 65.833 117.249 67.9776 120.879C68.7315 122.155 69.2848 125.148 70.8437 125.731C72.6333 126.401 71.7163 122.447 71.794 121.263C71.9418 119.009 71.6167 117.031 71.7641 114.785C71.8883 112.891 71.4536 109.293 72.6715 107.889C72.97 107.544 76.7487 107.097 77.1406 107.569C77.6621 108.196 73.557 110.578 73.0144 111.136C72.0735 112.102 72.8429 116.232 72.9394 117.287C73.1526 119.617 74.654 122.034 75.5977 124.151C76.2575 125.631 77.6562 128.123 79.3232 128.233C82.066 128.413 84.1839 126.567 84.3833 123.528C84.6762 119.064 86.835 114.113 84.1266 110.106C83.7262 109.514 81.9738 108.259 83.0049 108.327C84.0583 108.396 84.8714 108.118 84.8548 109.407C84.8255 111.687 86.0908 113.716 86.813 115.772C87.7276 118.376 87.7816 120.269 87.6012 123.019C87.3316 127.129 88.2385 125.384 90.1421 122.813C95.8775 115.067 102.547 108.139 106.751 99.2512C108.89 94.7293 114.32 90.2033 114.656 85.0855C114.786 83.1041 114.916 81.1228 115.046 79.1414C115.373 74.1608 119.325 70.1382 121.713 66.1204C123.376 63.322 124.473 60.2647 124.69 56.9614C124.94 53.146 126.381 49.2157 127.606 45.6398C128.772 42.2392 128.524 38.3207 129.979 34.8955C130.96 32.5864 130.001 29.7418 130.824 27.4089C131.557 25.3335 133.541 19.1362 133.396 21.3414C133.282 23.0763 132.283 24.4298 132.168 26.1912C131.926 29.8708 131.685 33.5505 131.444 37.2302C131.093 42.5817 130.741 47.9331 130.39 53.2846C130.254 55.3566 129.235 57.02 129.1 59.0896C128.919 61.8475 127.772 64.4355 127.01 67.0542C123.98 77.4632 119.61 87.2504 114.893 96.8805C112.814 101.126 111.049 104.375 107.909 107.802C105.117 110.848 103.265 115.452 101.403 119.128C99.8736 122.148 97.9557 125.077 95.7166 127.603C94.8315 128.601 93.7181 129.652 93.0059 130.783C92.6703 131.316 91.571 131.397 91.0964 132.15C90.818 132.592 89.2953 133.292 88.8939 132.592C88.3366 131.62 94.0891 129.927 94.8076 129.515C97.3731 128.044 98.5899 126.772 100.439 124.581C100.764 124.196 100.691 123.75 100.876 123.304C101.256 122.392 102.235 122.302 102.857 121.622C103.965 120.409 106.522 119.991 108.115 119.302C110.829 118.127 113.164 116.815 116.066 115.986C117.461 115.587 119.761 114.392 120.791 113.311C122.049 111.989 124.056 111.432 125.495 110.555C126.682 109.832 127.599 108.462 128.892 107.713C132.124 105.839 135.428 103.008 137.354 99.6867C139.147 96.595 140.359 92.7556 141.443 89.3747C142.046 87.4924 142.653 85.959 143.574 84.2378C144.164 83.1357 144.54 81.8897 145.285 80.8855C146.525 79.2144 148.518 77.6937 149.338 75.7414C150.419 73.1682 153.485 71.3595 153.96 68.4759C154.237 66.7903 153.285 69.5735 153.043 70.1214C151.335 73.9958 149.623 79.0997 149.338 83.4434C149.162 86.1289 148.583 88.1395 147.601 90.6583C146.715 92.9322 146.61 95.4812 145.671 97.7273C143.709 102.422 141.06 106.695 137.909 110.49C135.624 113.242 134.019 116.578 131.524 119.212C128.723 122.17 125.055 123.819 121.63 125.945C114.767 130.205 107.477 133.898 100.073 137.483C97.0345 138.954 94.1111 140.604 90.9087 141.945C89.5366 142.519 88.0198 142.589 86.7222 143.349C85.0556 144.326 85.1175 142.712 85.6602 142.587C88.51 141.928 92.3048 141.557 95.2182 141.748C97.6237 141.906 100.001 141.964 102.341 142.588C105.042 143.309 109.115 143.502 111.362 145.312C112.855 146.516 114.797 146.677 116.462 147.699C118.704 149.076 121.66 150.245 124.192 150.845C125.959 151.263 127.558 152.881 129.301 153.099C131.083 153.321 132.583 153.727 133.813 155.207C134.614 156.171 133.939 158.668 133.862 159.847C133.675 162.696 133.746 165.097 134.476 167.829C135.381 171.22 136.617 174.841 137.898 178.074C139.586 182.335 141.676 185.125 141.925 189.878C142.24 195.874 137.819 187.864 137.166 185.755C135.443 180.184 132.093 175.353 130.852 169.51C130.505 167.877 129.629 166.653 129.371 165.123C129.231 164.295 128.346 163.53 127.957 162.791C127.334 161.609 127.147 160.072 126.412 158.985C125.737 157.986 123.555 156.71 122.455 156.514C118.725 155.85 115.047 155.057 111.366 154.107C106.774 152.922 101.692 150.915 97.5476 148.617C95.4303 147.443 93.0822 146.741 90.8524 145.886C89.6288 145.416 88.9093 144.692 87.5498 144.603" stroke="white" stroke-width="2.0878" stroke-linecap="round"/>
<rect x="79.3585" y="-2.73303" width="1.70651" height="111.776" fill="#D9D9D9"/>
</svg>
