<svg width="1500" height="200" viewBox="0 0 26496 3229" fill="none" xmlns="http://www.w3.org/2000/svg">
<ellipse cx="1529.6" cy="1614.5" rx="1529.6" ry="1614.5" transform="matrix(-1 0 0 1 3059.19 0)" fill="#FF0000"/>
<ellipse cx="1529.6" cy="1614.5" rx="1529.6" ry="1614.5" transform="matrix(-1 0 0 1 6781.19 0)" fill="#FF0000"/>
<ellipse cx="1529.6" cy="1614.5" rx="1529.6" ry="1614.5" transform="matrix(-1 0 0 1 10503.2 0)" fill="#FF0000"/>
<ellipse cx="1529.6" cy="1614.5" rx="1529.6" ry="1614.5" transform="matrix(-1 0 0 1 14532.2 0)" fill="#FF0000"/>
<ellipse cx="1529.6" cy="1614.5" rx="1529.6" ry="1614.5" transform="matrix(-1 0 0 1 18561.2 0)" fill="#FF0000"/>
<ellipse cx="1529.6" cy="1614.5" rx="1529.6" ry="1614.5" transform="matrix(-1 0 0 1 22466.2 0)" fill="#FF0000"/>
<ellipse cx="1529.6" cy="1614.5" rx="1529.6" ry="1614.5" transform="matrix(-1 0 0 1 26495.2 0)" fill="#FF0000"/>
</svg>
