<svg width="4689" height="2266" viewBox="0 0 4689 2266" fill="none" xmlns="http://www.w3.org/2000/svg">
<path d="M231.299 177.679C243.746 423.385 268.013 669.121 268.013 919.98C268.013 1070.44 373.065 1966.76 420.186 2076.57M55 432.866C231.306 405.698 404.944 177.679 581.272 177.679C629.302 177.679 660.728 280.261 703.511 328.471M582.002 185.262C563.346 493.499 588.357 818.836 588.358 1132.05C594.436 1168.7 737.787 2172.93 737.787 2211.02M797.945 357.851C797.945 574.396 797.218 1171.51 797.945 1388.05C798.282 1488.52 682.934 1860.97 706.738 1956.53M797.923 613.096C818.551 782.822 867.913 952.95 908.209 1114.38C934.837 1221.06 966.028 1327 1011.64 1419.73C1030.7 1458.46 1043.1 1502.84 1064.39 1539.08C1073.94 1555.34 1087.51 1570.42 1093.85 1588.81M797.923 1341.1C857.882 1336.78 902.08 1303.57 961.624 1303.57M1080.63 365.738C1071.75 755.879 1086.41 1151.35 1163.71 1529.29C1181.82 1617.85 1213.27 1703.18 1228.76 1792.33C1230.83 1804.25 1229.46 1815.77 1227.83 1827.47M916.269 651.102C1045.95 558.765 1509.19 206.854 1566.67 602.596C1588.67 754.091 1464.03 861.59 1376.76 917.376C1325.42 950.201 1134.64 729.334 1086.59 693.643M1673.13 598.068C1685.93 935.733 1777.14 1237.48 1858.91 1552.63C1886.67 1659.59 1887.2 1761.73 1887.2 1874.01M1515.72 305.304C1646.93 551.424 1810.31 756.907 1941.54 1001.15C2034.9 1174.89 2119.33 1375.25 2239.78 1513.69M1805.4 1318.58C1849.6 1246.11 1933.9 1130.95 2013.17 1130.95M2314.86 411.093C2283.22 557.221 2284.68 711.755 2283.86 862.635C2283.26 971.899 2273.7 1080.21 2259.59 1187.74C2252.57 1241.23 2246.23 1295.56 2241.81 1349.56C2240.78 1362.18 2235.5 1369.21 2242.09 1378.16M2251.7 903.076C2319.02 919.478 2518.63 990.586 2585.79 1004.02C2588.01 1004.46 2470.73 945.11 2462.59 941.399C2437.12 929.781 2411.08 923.382 2384.33 920.4C2376 919.472 2378.59 913.434 2384.99 912.431C2422.12 906.606 2461.85 914.016 2499.34 912.693C2534.63 911.448 2572.92 907.905 2607.83 917.168C2616.3 919.414 2618.47 924.132 2624.56 916.07M2665.68 147.731C2648.82 241.093 2646.6 336.702 2641.17 431.747C2628.89 646.879 2603.62 862.033 2598.14 1077.39C2593.06 1277.24 2611.27 1479.36 2596.5 1678.96M2926.48 643.724C2824 780.138 2691.51 914.06 2732.1 1121.88C2781.59 1375.26 3046.87 1369.63 3175.52 1231.32C3243.02 1158.74 3241.71 1036.96 3240.59 931.916L3240.57 930.615C3239.4 821.681 3202.53 736.529 3147.18 662.85C3095.35 593.858 2987.95 568.792 2931.66 643.724M3361.51 271.399C3344.07 471.873 3338.03 677.761 3342.54 879.442C3344.38 961.761 3349.92 1043.89 3355.27 1125.9C3356.99 1152.25 3351.58 1555.09 3364.04 1579.87C3380.26 1612.13 3578.85 963.039 3588.97 946.101C3661.68 824.37 3739.74 689.515 3797.07 553.05C3807.75 527.629 3816.67 501.988 3823.69 475.733M3823.69 475.733C3834.31 436.068 3840.6 395 3842.14 351.168C3843.87 301.906 3832.36 358.222 3830.48 376.95C3827.19 409.71 3824.99 442.659 3823.69 475.733ZM3823.69 475.733C3816.92 647.679 3834.24 822.995 3846.86 992.623C3854.05 1089.27 3917.12 1679.24 3936.89 1773.23M3516.7 54.6875C3542.97 59.8962 3895.78 56.7715 3920.95 67.6339M4600.86 598.039C4620.84 904.725 4593.47 1213.63 4611.3 1520.3C4615.83 1598.23 4634.43 1672.62 4634.43 1750.64M4600.89 586.333C4564.32 469.774 4512.14 320.296 4410.04 253.546C4321.76 195.833 4148.23 458.089 4123.76 518.012C4068.03 654.519 4042.38 720.767 4092.65 859.614C4120.58 936.771 4212.95 980.198 4287.65 983.032C4356.39 985.64 4426.71 979.05 4488.87 947.77C4527.32 928.42 4576.96 822.379 4600.89 796.961C4633.1 762.735 4489.14 1075.29 4480.57 1091.02C4413.24 1214.67 4335.43 1330.4 4268.98 1454.66C4242.04 1505.04 4236.08 1553.49 4198.44 1597.92C4157.46 1646.29 4096.8 1708.81 4096.8 1776.43" stroke="white" stroke-width="108.518" stroke-linecap="round"/>
</svg>
